<svg width="512" height="512" viewBox="0 0 512 512" fill="none" xmlns="http://www.w3.org/2000/svg">
<circle cx="256" cy="256" r="256" fill="url(#paint0_linear)"/>
<g clip-path="url(#clip0)">
<path d="M355.757 150.123H343.201V132.597C343.201 130.058 341.142 128 338.604 128C336.065 128 334.007 130.058 334.007 132.597V150.123H181.154V132.597C181.154 130.058 179.095 128 176.556 128C174.018 128 171.959 130.058 171.959 132.597V150.123H155.955C140.732 150.085 128.352 162.382 128.287 177.605V356.13C128.287 371.34 140.745 384 155.955 384H355.755C370.967 384 383.425 371.34 383.425 356.13V177.605C383.36 162.382 370.981 150.085 355.757 150.123V150.123ZM155.955 159.318H176.072C176.173 159.318 176.274 159.333 176.377 159.333C176.48 159.333 176.581 159.318 176.682 159.318H338.305C338.406 159.318 338.509 159.333 338.61 159.333C338.714 159.333 338.815 159.318 338.918 159.318H355.757C365.906 159.275 374.17 167.457 374.231 177.605V200.691H137.481V177.605C137.542 167.457 145.807 159.275 155.955 159.318ZM355.755 374.806H155.955C145.813 374.806 137.481 366.269 137.481 356.13V209.886H374.231V356.13C374.231 366.269 365.899 374.806 355.757 374.806H355.755Z" fill="white"/>
<path d="M292.633 258.278V253.553C294.357 252.967 296.081 251.226 296.081 249.169V229.879C296.009 225.508 292.465 221.991 288.095 221.953H223.619C219.248 221.991 215.704 225.508 215.632 229.879V249.169C215.632 251.226 217.356 252.967 219.08 253.553V258.292C219.08 258.312 218.97 258.332 218.934 258.35C218.808 258.418 218.665 258.489 218.539 258.559C218.348 258.667 218.149 258.772 217.962 258.884C217.83 258.961 217.697 259.039 217.569 259.118C217.39 259.228 217.208 259.338 217.031 259.452C216.9 259.535 216.773 259.621 216.642 259.704C216.469 259.82 216.299 259.935 216.126 260.054C215.998 260.141 215.872 260.229 215.747 260.319C215.578 260.44 215.41 260.563 215.244 260.689C215.123 260.779 215.001 260.871 214.88 260.965C214.714 261.093 214.55 261.226 214.386 261.356C214.272 261.45 214.153 261.544 214.039 261.639C213.87 261.778 213.706 261.921 213.542 262.063C213.437 262.155 213.329 262.247 213.224 262.341C213.046 262.501 212.871 262.664 212.696 262.828C212.611 262.909 212.526 262.988 212.436 263.071C212.202 263.295 211.971 263.524 211.744 263.76C211.722 263.782 211.697 263.805 211.675 263.827C211.426 264.085 211.181 264.346 210.941 264.613C210.867 264.694 210.795 264.779 210.723 264.862C210.559 265.046 210.395 265.232 210.236 265.421C210.146 265.526 210.063 265.634 209.976 265.74C209.834 265.91 209.695 266.083 209.558 266.256C209.468 266.37 209.379 266.489 209.289 266.606C209.161 266.774 209.035 266.943 208.909 267.113C208.82 267.237 208.732 267.36 208.645 267.484C208.526 267.654 208.407 267.823 208.29 267.993C208.205 268.121 208.119 268.249 208.034 268.379C207.92 268.55 207.807 268.723 207.7 268.896C207.619 269.028 207.536 269.158 207.455 269.291C207.349 269.468 207.244 269.648 207.138 269.825C207.062 269.957 206.986 270.09 206.909 270.222C206.804 270.406 206.703 270.595 206.602 270.783C206.535 270.911 206.465 271.039 206.398 271.169C206.292 271.369 206.193 271.571 206.095 271.776C206.036 271.897 205.976 272.016 205.917 272.137C205.803 272.377 205.695 272.622 205.585 272.866C205.549 272.95 205.509 273.035 205.471 273.118C205.329 273.45 205.192 273.782 205.06 274.119C205.031 274.195 205.001 274.272 204.972 274.348C204.874 274.608 204.777 274.869 204.685 275.131C204.642 275.255 204.602 275.38 204.559 275.506C204.487 275.724 204.413 275.942 204.344 276.162C204.301 276.301 204.261 276.442 204.218 276.584C204.157 276.79 204.097 276.997 204.039 277.203C203.998 277.354 203.96 277.502 203.924 277.652C203.87 277.854 203.821 278.058 203.771 278.263C203.735 278.415 203.702 278.568 203.668 278.721C203.623 278.925 203.581 279.127 203.538 279.331C203.509 279.486 203.477 279.643 203.45 279.798C203.412 280.005 203.376 280.211 203.343 280.415C203.318 280.572 203.293 280.727 203.271 280.884C203.239 281.095 203.212 281.306 203.186 281.515C203.165 281.668 203.145 281.82 203.127 281.975C203.102 282.198 203.085 282.418 203.064 282.64C203.051 282.786 203.037 282.927 203.026 283.075C203.008 283.32 202.997 283.567 202.984 283.814C202.979 283.935 202.993 284.058 202.984 284.182C202.97 284.552 202.984 284.923 202.984 285.293V346.274C202.988 355.953 210.797 363.818 220.476 363.888H291.251C300.927 363.807 308.728 355.937 308.723 346.26V285.3C308.746 274.016 302.564 263.634 292.633 258.278V258.278ZM224.826 231.147H286.887V244.364H224.826V231.147ZM299.529 346.247C299.545 350.857 295.848 354.624 291.237 354.694H220.49C215.879 354.631 212.175 350.873 212.184 346.26V285.297C212.171 276.633 217.374 268.81 225.372 265.477C227.12 264.781 228.267 263.093 228.274 261.212V253.558H283.439V261.212C283.446 263.102 284.604 264.797 286.364 265.488C294.229 268.593 299.529 276.554 299.529 285.3V346.247Z" fill="white"/>
<path d="M284.014 296.655H269.073V281.14C269.073 278.602 267.015 276.543 264.476 276.543H247.237C244.698 276.543 242.64 278.602 242.64 281.14V296.655H227.7C225.161 296.655 223.103 298.714 223.103 301.253V317.342C223.103 319.881 225.161 321.939 227.7 321.939H242.64V337.455C242.64 339.993 244.698 342.052 247.237 342.052H264.476C267.015 342.052 269.073 339.993 269.073 337.455V321.939H284.014C286.553 321.939 288.611 319.881 288.611 317.342V301.253C288.611 298.714 286.553 296.655 284.014 296.655ZM279.417 312.745H264.476C261.938 312.745 259.879 314.804 259.879 317.342V332.857H251.834V317.342C251.834 314.804 249.776 312.745 247.237 312.745H232.297V305.85H247.237C249.776 305.85 251.834 303.791 251.834 301.253V285.737H259.879V301.253C259.879 303.791 261.938 305.85 264.476 305.85H279.417V312.745Z" fill="white"/>
</g>
<defs>
<linearGradient id="paint0_linear" x1="256" y1="0" x2="256" y2="512" gradientUnits="userSpaceOnUse">
<stop stop-color="#1565C0"/>
<stop offset="0.510417" stop-color="#1565C0" stop-opacity="0.8"/>
<stop offset="1" stop-color="#1565C0"/>
</linearGradient>
<clipPath id="clip0">
<rect width="256" height="256" fill="white" transform="translate(128 128)"/>
</clipPath>
</defs>
</svg>
