<svg id="Capa_1" enable-background="new 0 0 512 512" height="512" viewBox="0 0 512 512" width="512" xmlns="http://www.w3.org/2000/svg"><g><path d="m441 116v381c0 8.28-6.72 15-15 15h-300c-8.28 0-15-6.72-15-15v-381z" fill="#00607f"/><path d="m441 116v381c0 8.28-6.72 15-15 15h-150v-396z" fill="#00465f"/><g><path d="m101 0c-8.284 0-15 6.716-15 15v91c0 8.284 6.716 15 15 15h85v-121z" fill="#63c6f8"/><path d="m186 0h90v121h-90z" fill="#23a5f6"/><path d="m276 0h90v121h-90z" fill="#63c6f8"/><path d="m451 0h-85v121h85c8.284 0 15-6.716 15-15v-91c0-8.284-6.716-15-15-15z" fill="#23a5f6"/></g><path d="m156 367c0-30.327-24.673-55-55-55s-55 24.673-55 55v46h110z" fill="#db375a"/><path d="m156 367v46h-55v-101c30.33 0 55 24.67 55 55z" fill="#b71c4c"/><path d="m46 413v44c0 30.327 24.673 55 55 55s55-24.673 55-55v-44z" fill="#63c6f8"/><path d="m156 413v44c0 30.33-24.67 55-55 55v-99z" fill="#23a5f6"/><path d="m240 402c-30.327 0-55 24.673-55 55s24.673 55 55 55h44v-110z" fill="#db375a"/><path d="m284 457v55h-44c-30.33 0-55-24.67-55-55z" fill="#b71c4c"/><path d="m330 402h-46v110h46c30.327 0 55-24.673 55-55s-24.673-55-55-55z" fill="#63c6f8"/><path d="m385 457c0 30.33-24.67 55-55 55h-46v-55z" fill="#23a5f6"/><path d="m346 231h-25v-25c0-8.284-6.716-15-15-15h-60c-8.284 0-15 6.716-15 15v25h-25c-8.284 0-15 6.716-15 15v60c0 8.284 6.716 15 15 15h25v25c0 8.284 6.716 15 15 15h60c8.284 0 15-6.716 15-15v-25h25c8.284 0 15-6.716 15-15v-60c0-8.284-6.716-15-15-15z" fill="#e4edef"/><path d="m361 246v60c0 8.28-6.72 15-15 15h-25v25c0 8.28-6.72 15-15 15h-30v-170h30c8.28 0 15 6.72 15 15v25h25c8.28 0 15 6.72 15 15z" fill="#bfdfe7"/></g></svg>