<svg id="Capa_1" enable-background="new 0 0 512 512" height="512" viewBox="0 0 512 512" width="512" xmlns="http://www.w3.org/2000/svg"><g><g><path d="m221.367 139.069h79.556c4.142 0 7.5-3.358 7.5-7.5s-3.358-7.5-7.5-7.5h-79.556c-4.142 0-7.5 3.358-7.5 7.5 0 4.143 3.358 7.5 7.5 7.5z"/><path d="m221.367 174.304h79.556c4.142 0 7.5-3.358 7.5-7.5s-3.358-7.5-7.5-7.5h-79.556c-4.142 0-7.5 3.358-7.5 7.5s3.358 7.5 7.5 7.5z"/><path d="m221.367 239.358h79.556c4.142 0 7.5-3.358 7.5-7.5s-3.358-7.5-7.5-7.5h-79.556c-4.142 0-7.5 3.358-7.5 7.5s3.358 7.5 7.5 7.5z"/><path d="m221.367 274.592h79.556c4.142 0 7.5-3.358 7.5-7.5s-3.358-7.5-7.5-7.5h-79.556c-4.142 0-7.5 3.358-7.5 7.5s3.358 7.5 7.5 7.5z"/><path d="m221.367 341.148h79.556c4.142 0 7.5-3.358 7.5-7.5s-3.358-7.5-7.5-7.5h-79.556c-4.142 0-7.5 3.358-7.5 7.5 0 4.143 3.358 7.5 7.5 7.5z"/><path d="m253.716 361.383h-32.349c-4.142 0-7.5 3.358-7.5 7.5s3.358 7.5 7.5 7.5h32.349c4.142 0 7.5-3.358 7.5-7.5s-3.359-7.5-7.5-7.5z"/><path d="m176.588 116.389h-41.579c-6.735 0-12.215 5.463-12.215 12.177v41.243c0 6.714 5.48 12.177 12.215 12.177h41.579c6.719 0 12.186-5.463 12.186-12.177v-41.243c0-6.715-5.467-12.177-12.186-12.177zm-2.813 50.597h-35.981v-35.598h35.981z"/><path d="m176.588 216.677h-41.579c-6.735 0-12.215 5.463-12.215 12.177v41.243c0 6.714 5.48 12.177 12.215 12.177h41.579c6.719 0 12.186-5.463 12.186-12.177v-41.243c0-6.714-5.467-12.177-12.186-12.177zm-2.813 50.597h-35.981v-35.598h35.981z"/><path d="m176.588 318.467h-41.579c-6.735 0-12.215 5.463-12.215 12.177v41.243c0 6.714 5.48 12.177 12.215 12.177h41.579c6.719 0 12.186-5.463 12.186-12.177v-41.243c0-6.714-5.467-12.177-12.186-12.177zm-2.813 50.598h-35.981v-35.598h35.981z"/><path d="m464.521 364.879c-2.463-12.266-9.56-22.811-19.991-29.698-19.204-12.65-44.481-9.36-59.865 6.66v-288.364c0-7.011-5.71-12.715-12.729-12.715h-73.356c-1.518-7.477-8.166-13.124-16.117-13.124h-13.418v-1.486c0-14.421-11.799-26.152-26.303-26.152h-54.266c-14.519 0-26.331 11.731-26.331 26.151v1.486h-13.389c-7.964 0-14.625 5.647-16.145 13.124h-73.329c-7.019 0-12.729 5.704-12.729 12.715v184.419c0 4.142 3.358 7.5 7.5 7.5s7.5-3.358 7.5-7.5v-182.134h70.729v20.887h-37.165c-6.83 0-12.386 5.539-12.386 12.347v335.9c0 6.808 5.556 12.347 12.386 12.347h154.062c1.197 7.255 3.643 14.303 7.282 20.887h-194.908v-181.087c0-4.142-3.358-7.5-7.5-7.5s-7.5 3.358-7.5 7.5v183.398c0 6.996 5.71 12.687 12.729 12.687h208.51c8.696 8.63 19.662 14.692 31.948 17.472 4.87 1.111 9.807 1.668 14.76 1.668 1.438 0 2.878-.051 4.317-.145 3.312 4.723 7.507 8.833 12.466 12.107 7.963 5.258 16.965 7.772 25.876 7.771 15.166-.001 30.062-7.288 39.064-20.736l30.64-45.659c.026-.038.057-.071.083-.11.025-.038.044-.077.068-.115l30.592-45.589c6.911-10.299 9.367-22.698 6.915-34.912zm-317.24-320.87c0-.731.688-1.372 1.474-1.372h20.889c4.142 0 7.5-3.358 7.5-7.5v-8.986c0-6.149 5.084-11.152 11.332-11.152h54.266c6.233 0 11.304 5.003 11.304 11.152v8.986c0 4.142 3.358 7.5 7.5 7.5h20.918c.77 0 1.445.642 1.445 1.372v32.639h-136.628zm102.727 367.945c-.789 3.418-1.287 6.855-1.525 10.288h-150.753v-330.595h235.758v146.249c0 4.142 3.358 7.5 7.5 7.5s7.5-3.358 7.5-7.5v-148.902c0-6.808-5.556-12.347-12.386-12.347h-37.194v-20.886h70.758v307.152l-10.357 15.441c-3.333-3.072-6.955-5.767-10.822-8.072v-97.748c0-4.142-3.358-7.5-7.5-7.5s-7.5 3.358-7.5 7.5v91.182c-1.415-.42-2.85-.797-4.305-1.128-35.54-8.039-71.059 14.108-79.174 49.366zm68.205 27.67c-6.91 10.299-9.366 22.698-6.915 34.911.18.897.392 1.782.621 2.659-2.969-.15-5.927-.553-8.856-1.222-13.392-3.03-24.763-11.06-32.018-22.613-7.168-11.414-9.449-24.921-6.421-38.037 6.267-27.234 33.746-44.328 61.24-38.108 9.629 2.19 18.157 6.926 24.959 13.79zm65.55 43.29c-9.725 14.529-29.56 18.475-44.216 8.798-7.064-4.664-11.873-11.812-13.543-20.129-1.659-8.265-.002-16.647 4.665-23.603 0 0 0 0 0-.001l26.527-39.55 53.046 35.025zm61.388-91.48-26.55 39.565-53.048-35.027 26.47-39.465c6.133-9.14 16.278-14.089 26.611-14.089 6.073 0 12.213 1.71 17.639 5.284 7.064 4.664 11.873 11.812 13.543 20.129 1.658 8.265.001 16.648-4.665 23.603z"/></g></g></svg>