<?xml version="1.0" encoding="iso-8859-1"?>
<!-- Generator: Adobe Illustrator 19.0.0, SVG Export Plug-In . SVG Version: 6.00 Build 0)  -->
<svg version="1.1" id="Layer_1" xmlns="http://www.w3.org/2000/svg" xmlns:xlink="http://www.w3.org/1999/xlink" x="0px" y="0px"
	 viewBox="0 0 344.444 344.444" style="enable-background:new 0 0 344.444 344.444;" xml:space="preserve">
<g>
	<g>
		<path d="M254.557,221.867l-43.444-9.656v-13.728c16.789-12.117,27.778-31.794,27.778-54.039v-2.394
			c13.75-8.25,22.222-22.872,22.222-39.111V51.967C261.112,23.311,237.801,0,209.145,0h-70.072
			c-12.528,0-23.622,7.517-28.267,19.133l-1.339,3.35c-1.761,4.406-5.067,7.994-9.306,10.111
			c-10.378,5.194-16.828,15.628-16.828,27.233v43.111c0,16.239,8.472,30.867,22.222,39.111v2.394
			c0,22.244,10.989,41.922,27.778,54.039v13.728l-43.444,9.65c-33.3,7.406-56.556,36.389-56.556,70.506v52.078h277.778v-52.078
			C311.112,258.25,287.857,229.267,254.557,221.867z M105.557,88.583v39.789c-7.006-6.444-11.111-15.567-11.111-25.439V59.822
			c0-7.367,4.094-14,10.689-17.289c6.667-3.333,11.872-8.983,14.656-15.917l1.339-3.356c2.95-7.383,9.994-12.15,17.944-12.15h70.072
			c22.528,0,40.856,18.328,40.856,40.856v50.972c0,9.872-4.106,18.994-11.111,25.439V88.589c0-18.217-14.817-33.033-33.028-33.033
			c-15.694,0-29.311,11.167-32.389,26.55l-0.244,1.228h-2.006l-0.244-1.228c-3.078-15.383-16.694-26.55-32.394-26.55
			C120.373,55.556,105.557,70.372,105.557,88.583z M116.668,144.444V88.583c0-12.083,9.833-21.917,21.917-21.917
			c10.417,0,19.456,7.411,21.494,17.622l2.039,10.156h20.217l2.033-10.156c2.039-10.211,11.078-17.622,21.494-17.622
			c12.083,0,21.917,9.833,21.917,21.917v55.861c0,30.633-24.922,55.556-55.556,55.556C141.589,200,116.668,175.078,116.668,144.444z
			 M144.445,215.128v-10.156c8.467,3.9,17.856,6.139,27.778,6.139s19.311-2.239,27.778-6.139v10.156l-27.778,46.3L144.445,215.128z
			 M166.234,273.039l-32.444-20.272l3.9-27.3L166.234,273.039z M206.757,225.467l3.9,27.294l-32.444,20.272L206.757,225.467z
			 M244.445,333.334H100.001v-22.222H88.89v22.222H44.445v-40.967c0-28.861,19.678-53.394,47.85-59.65l13.261-2.95v42.456H88.89
			c-12.256,0-22.222,9.967-22.222,22.222v27.778h16.667v-11.111h-5.556v-16.667c0-6.128,4.983-11.111,11.111-11.111h44.444
			c6.128,0,11.111,4.983,11.111,11.111v16.667h-5.556v11.111h16.667v-27.778c0-12.256-9.967-22.222-22.222-22.222h-16.667v-44.928
			l9.85-2.189l-4.75,33.244l50.456,31.539l50.456-31.539l-4.75-33.244l9.85,2.189v45.717c-9.561,2.483-16.667,11.106-16.667,21.433
			c0,12.256,9.967,22.222,22.222,22.222c4.067,0,7.828-1.178,11.111-3.089V333.334z M233.334,283.334
			c6.128,0,11.111,4.983,11.111,11.111c0,6.127-4.983,11.111-11.111,11.111s-11.111-4.983-11.111-11.111
			S227.206,283.334,233.334,283.334z M300.001,333.333h-44.444v-22.222h-7.678c4.667-4.078,7.678-9.994,7.678-16.667
			c0-10.328-7.106-18.95-16.667-21.433v-43.244l13.261,2.95c28.172,6.256,47.85,30.789,47.85,59.65V333.333z"/>
	</g>
</g>
<g>
</g>
<g>
</g>
<g>
</g>
<g>
</g>
<g>
</g>
<g>
</g>
<g>
</g>
<g>
</g>
<g>
</g>
<g>
</g>
<g>
</g>
<g>
</g>
<g>
</g>
<g>
</g>
<g>
</g>
</svg>
