<?xml version="1.0" encoding="iso-8859-1"?>
<!-- Generator: Adobe Illustrator 19.0.0, SVG Export Plug-In . SVG Version: 6.00 Build 0)  -->
<svg version="1.1" id="Capa_1" xmlns="http://www.w3.org/2000/svg" xmlns:xlink="http://www.w3.org/1999/xlink" x="0px" y="0px"
	 viewBox="0 0 512 512" style="enable-background:new 0 0 512 512;" xml:space="preserve">
<g>
	<g>
		<path d="M346.244,237.627h-59.123v-59.123c0-6.254-5.088-11.342-11.342-11.342H236.22c-6.254,0-11.342,5.088-11.342,11.342v59.123
			h-59.123c-6.254,0-11.342,5.088-11.342,11.342v39.559c0,6.253,5.088,11.342,11.342,11.342h59.123v59.123
			c0,6.254,5.088,11.342,11.342,11.342h39.559c6.254,0,11.342-5.088,11.342-11.342V299.87h59.123
			c6.254,0,11.342-5.088,11.342-11.342v-39.559C357.587,242.715,352.499,237.627,346.244,237.627z M342.59,284.873h-62.967
			c-4.142,0-7.498,3.357-7.498,7.498v62.967h-32.25v-62.967c0-4.141-3.357-7.498-7.498-7.498H169.41v-32.25h62.967
			c4.142,0,7.498-3.357,7.498-7.498v-62.967h32.25v62.967c0,4.141,3.357,7.498,7.498,7.498h62.967V284.873z"/>
	</g>
</g>
<g>
	<g>
		<path d="M470.477,37.242h-29.034v-5.56C441.443,14.212,427.23,0,409.76,0c-17.469,0-31.682,14.212-31.682,31.682v5.56h-39.142
			v-5.56C338.936,14.212,324.724,0,307.253,0S275.57,14.212,275.57,31.682v5.56h-39.14v-5.56C236.43,14.212,222.217,0,204.747,0
			c-17.47,0-31.683,14.212-31.683,31.682v5.56h-39.142v-5.56C133.922,14.212,119.71,0,102.24,0C84.77,0,70.557,14.212,70.557,31.682
			v5.56H41.523c-12.628,0-22.902,10.273-22.902,22.902v428.954c0,12.628,10.274,22.902,22.902,22.902h428.953
			c12.628,0,22.902-10.274,22.902-22.902V60.144C493.378,47.516,483.104,37.242,470.477,37.242z M393.074,31.682
			c0-9.2,7.486-16.686,16.685-16.686c9.201,0,16.686,7.485,16.686,16.686v23.021c0,9.2-7.485,16.686-16.686,16.686
			c-9.2,0-16.685-7.485-16.685-16.686V31.682z M290.567,31.689c0,0.006,0-0.014,0-0.007c0-9.2,7.486-16.686,16.686-16.686
			s16.686,7.485,16.686,16.686v23.021c0,9.2-7.486,16.686-16.686,16.686s-16.686-7.485-16.686-16.686V31.689z M188.06,54.697V31.682
			c0-9.2,7.486-16.686,16.686-16.686c9.201,0,16.686,7.485,16.686,16.686v23.021c0,9.2-7.486,16.686-16.686,16.686
			c-9.2,0.001-16.686-7.485-16.686-16.685C188.06,54.697,188.06,54.704,188.06,54.697z M85.554,31.682
			c0-9.2,7.486-16.686,16.686-16.686s16.685,7.485,16.685,16.686v23.021c0,9.2-7.485,16.686-16.685,16.686
			c-9.201,0-16.686-7.485-16.686-16.686V31.682z M478.382,489.098c0,4.359-3.546,7.906-7.905,7.906H41.523
			c-4.359,0-7.905-3.547-7.905-7.906V120.533h444.764V489.098z M478.384,105.537h-0.001H33.618V60.144
			c0-4.359,3.546-7.905,7.905-7.905h29.034v2.465c0,17.47,14.212,31.682,31.683,31.682c17.469,0,31.682-14.212,31.682-31.682v-2.465
			h39.142v2.465c0,17.47,14.212,31.682,31.683,31.682s31.683-14.212,31.683-31.682v-2.465h39.141v2.465
			c0,17.47,14.212,31.682,31.683,31.682s31.683-14.212,31.683-31.682v-2.465h39.142v2.465c0,17.47,14.212,31.682,31.682,31.682
			c17.47,0,31.683-14.212,31.683-31.682v-2.465h29.034c4.359,0,7.905,3.547,7.905,7.905V105.537z"/>
	</g>
</g>
<g>
	<g>
		<path d="M432.806,140.487c-4.141,0-7.498,3.357-7.498,7.498v293.629H86.692V148.652c0-4.141-3.357-7.498-7.498-7.498
			c-4.142,0-7.498,3.357-7.498,7.498v300.461c0,4.141,3.356,7.498,7.498,7.498h353.612c4.142,0,7.498-3.357,7.498-7.498V147.985
			C440.304,143.844,436.947,140.487,432.806,140.487z"/>
	</g>
</g>
<g>
</g>
<g>
</g>
<g>
</g>
<g>
</g>
<g>
</g>
<g>
</g>
<g>
</g>
<g>
</g>
<g>
</g>
<g>
</g>
<g>
</g>
<g>
</g>
<g>
</g>
<g>
</g>
<g>
</g>
</svg>
