<?xml version="1.0" encoding="iso-8859-1"?>
<!-- Generator: Adobe Illustrator 19.0.0, SVG Export Plug-In . SVG Version: 6.00 Build 0)  -->
<svg version="1.1" id="Layer_1" xmlns="http://www.w3.org/2000/svg" xmlns:xlink="http://www.w3.org/1999/xlink" x="0px" y="0px"
	 viewBox="0 0 469.333 469.333" style="enable-background:new 0 0 469.333 469.333;" xml:space="preserve">
<g>
	<g>
		<path d="M341.333,138.667c5.888,0,10.667-4.779,10.667-10.667V74.667c0-17.643-14.357-32-32-32h-17.973
			C290.016,17.483,264.373,0,234.667,0h-85.333c-29.707,0-55.349,17.483-67.36,42.667H64c-17.643,0-32,14.357-32,32v362.667
			c0,17.643,14.357,32,32,32h256c17.643,0,32-14.357,32-32V384c0-5.888-4.779-10.667-10.667-10.667s-10.667,4.779-10.667,10.667
			v53.333c0,5.877-4.789,10.667-10.667,10.667H64c-5.877,0-10.667-4.789-10.667-10.667V74.667C53.333,68.789,58.123,64,64,64h11.52
			c-0.501,3.499-0.853,7.04-0.853,10.667V96c0,5.888,4.779,10.667,10.667,10.667h213.333c5.888,0,10.667-4.779,10.667-10.667V74.667
			c0-3.627-0.352-7.168-0.853-10.667H320c5.877,0,10.667,4.789,10.667,10.667V128C330.667,133.888,335.445,138.667,341.333,138.667z
			 M288,85.333H96V74.667c0-29.408,23.925-53.333,53.333-53.333h85.333c29.408,0,53.333,23.925,53.333,53.333V85.333z"/>
	</g>
</g>
<g>
	<g>
		<circle cx="192" cy="53.333" r="10.667"/>
	</g>
</g>
<g>
	<g>
		<path d="M277.333,138.667H106.667c-5.888,0-10.667,4.779-10.667,10.667S100.779,160,106.667,160h170.667
			c5.888,0,10.667-4.779,10.667-10.667S283.221,138.667,277.333,138.667z"/>
	</g>
</g>
<g>
	<g>
		<path d="M224,192H106.667C100.779,192,96,196.779,96,202.667s4.779,10.667,10.667,10.667H224c5.888,0,10.667-4.779,10.667-10.667
			S229.888,192,224,192z"/>
	</g>
</g>
<g>
	<g>
		<path d="M213.333,245.333H106.667C100.779,245.333,96,250.112,96,256c0,5.888,4.779,10.667,10.667,10.667h106.667
			c5.888,0,10.667-4.779,10.667-10.667C224,250.112,219.221,245.333,213.333,245.333z"/>
	</g>
</g>
<g>
	<g>
		<path d="M277.333,352H192c-5.888,0-10.667,4.779-10.667,10.667c0,5.888,4.779,10.667,10.667,10.667h85.333
			c5.888,0,10.667-4.779,10.667-10.667C288,356.779,283.221,352,277.333,352z"/>
	</g>
</g>
<g>
	<g>
		<path d="M149.333,352h-42.667C100.779,352,96,356.779,96,362.667c0,5.888,4.779,10.667,10.667,10.667h42.667
			c5.888,0,10.667-4.779,10.667-10.667C160,356.779,155.221,352,149.333,352z"/>
	</g>
</g>
<g>
	<g>
		<path d="M224,298.667H106.667c-5.888,0-10.667,4.779-10.667,10.667S100.779,320,106.667,320H224
			c5.888,0,10.667-4.779,10.667-10.667S229.888,298.667,224,298.667z"/>
	</g>
</g>
<g>
	<g>
		<path d="M341.333,160c-52.928,0-96,43.072-96,96s43.072,96,96,96c52.928,0,96-43.072,96-96S394.261,160,341.333,160z
			 M341.333,330.667c-41.173,0-74.667-33.493-74.667-74.667s33.493-74.667,74.667-74.667S416,214.827,416,256
			S382.507,330.667,341.333,330.667z"/>
	</g>
</g>
<g>
	<g>
		<path d="M378.827,214.859c-5.056-3.029-11.605-1.397-14.635,3.659l-24.971,41.621l-22.336-22.336
			c-4.171-4.171-10.912-4.171-15.083,0c-4.171,4.171-4.171,10.912,0,15.083l32,32c1.995,2.005,4.715,3.115,7.531,3.115
			c0.437,0,0.875-0.021,1.301-0.075c3.264-0.405,6.155-2.283,7.84-5.099l32-53.333C385.515,224.437,383.872,217.888,378.827,214.859
			z"/>
	</g>
</g>
<g>
</g>
<g>
</g>
<g>
</g>
<g>
</g>
<g>
</g>
<g>
</g>
<g>
</g>
<g>
</g>
<g>
</g>
<g>
</g>
<g>
</g>
<g>
</g>
<g>
</g>
<g>
</g>
<g>
</g>
</svg>
