<svg viewBox="-29 0 512 512" xmlns="http://www.w3.org/2000/svg"><g fill="#e2ebf9"><path d="m140.542969 166.21875v-28.054688h-17.113281c-8.136719 0-14.730469 6.597657-14.730469 14.734376v11.394531c0 8.136719 6.59375 14.734375 14.730469 14.734375h17.113281zm0 0"/><path d="m330.664062 138.164062h-17.113281v40.863282h17.113281c8.136719 0 14.734376-6.597656 14.734376-14.734375v-11.394531c0-8.136719-6.597657-14.734376-14.734376-14.734376zm0 0"/><path d="m261.625 357.40625 52.792969-49.585938-20.960938-3.894531c-10.113281-2.03125-17.394531-13.769531-17.394531-24.085937v-45.984375h-98.03125v45.984375c0 10.316406-7.277344 22.054687-17.394531 24.085937l-20.960938 3.894531 52.792969 49.585938c19.4375 18.253906 49.71875 18.253906 69.15625 0zm0 0"/></g><path d="m252.324219 233.855469v69.726562c0 10.316407 7.277343 22.054688 17.390625 24.085938l18.066406 5.171875 26.636719-25.019532-20.960938-3.894531c-10.113281-2.03125-17.394531-13.769531-17.394531-24.085937v-45.984375zm0 0" fill="#c1c8d2"/><path d="m288.242188 301.40625-61.195313 45.738281-61.195313-45.738281c-3.277343-2.453125-7.53125-3.203125-11.449218-2.019531l-102.808594 31.019531c-11.0625 3.339844-19.285156 12.648438-21.230469 24.035156l-22.648437 132.601563c-1.558594 9.125 5.46875 17.457031 14.726562 17.457031h409.210938c9.257812 0 16.285156-8.332031 14.726562-17.457031l-22.648437-132.601563c-1.945313-11.386718-10.167969-20.695312-21.230469-24.035156l-102.804688-31.019531c-3.921874-1.183594-8.171874-.433594-11.453124 2.019531zm0 0" fill="#76ffda"/><path d="m154.402344 299.386719-17.6875 5.335937 39.03125 54.621094c3.074218 4.300781 8.71875 5.886719 13.585937 3.820312l37.714844-16.019531-61.195313-45.738281c-3.277343-2.453125-7.527343-3.203125-11.449218-2.019531zm0 0" fill="#5de1c0"/><path d="m264.765625 363.164062c4.863281 2.066407 10.507813.480469 13.582031-3.820312l39.03125-54.621094-.09375-.027344-17.589844-5.308593c-3.921874-1.183594-8.171874-.433594-11.453124 2.019531l-61.195313 45.738281zm0 0" fill="#5de1c0"/><path d="m227.046875 347.144531-29.660156 12.597657 17.339843 20.15625h24.640626l17.339843-20.15625zm0 0" fill="#ff914d"/><path d="m239.367188 379.898438h-24.640626l-22.757812 124.601562h70.15625zm0 0" fill="#ff914d"/><path d="m289.949219 42.621094c-14.757813-12.707032-35.5-11.882813-62.902344-12.1875-27.402344.304687-48.144531-.519532-62.902344 12.1875-18.820312 16.207031-29.019531 40.273437-29.019531 65.113281v72.203125c0 24.839844 31.21875 90.722656 91.921875 90.722656s91.921875-65.882812 91.921875-90.722656v-72.203125c0-24.839844-10.199219-48.90625-29.019531-65.113281zm0 0" fill="#fff"/><path d="m289.949219 42.621094c-5.863281-5.046875-12.671875-7.957032-20.464844-9.652344 0 .039062.003906.070312.003906.109375v146.859375c0 21.203125-22.757812 72.3125-67.183593 86.820312 7.617187 2.484376 15.863281 3.902344 24.742187 3.902344 60.703125 0 91.921875-65.882812 91.921875-90.722656v-72.203125c0-24.839844-10.199219-48.90625-29.019531-65.113281zm0 0" fill="#e2ebf9"/><path d="m227.046875 481.367188s-68.726563-183.164063-72.644531-181.980469l-102.808594 31.019531c-11.0625 3.339844-19.285156 12.648438-21.230469 24.035156l-22.648437 132.601563c-1.558594 9.125 5.46875 17.457031 14.726562 17.457031h409.210938c9.257812 0 16.285156-8.332031 14.726562-17.457031l-22.648437-132.601563c-1.945313-11.386718-10.167969-20.695312-21.230469-24.035156l-102.804688-31.019531c-3.921874-1.183594-72.648437 181.980469-72.648437 181.980469zm0 0" fill="#fff"/><path d="m446.378906 487.042969-22.648437-132.601563c-1.945313-11.390625-10.167969-20.699218-21.230469-24.035156l-102.804688-31.019531c-1.066406-.320313-6.921874 12.980469-14.882812 32.519531l74.5625 22.496094c5.636719 1.703125 9.824219 6.445312 10.816406 12.246094l23.546875 137.851562h37.914063c9.257812 0 16.285156-8.332031 14.726562-17.457031zm0 0" fill="#e2ebf9"/><path d="m282.347656 7.5h-110.601562c-28.457032 0-51.527344 23.070312-51.527344 51.527344v84.589844s14.191406-.320313 23.308594 8.703124c1.898437 1.878907 5.125.503907 5.125-2.164062v-69.214844c0-12.582031 10.199218-22.777344 22.777344-22.777344h20.695312c5.425781 0 10.6875 1.878907 14.890625 5.3125l2.027344 1.660157c5.082031 4.152343 11.441406 6.421875 18.003906 6.421875s12.921875-2.269532 18.003906-6.421875l2.03125-1.660157c4.199219-3.433593 9.460938-5.3125 14.890625-5.3125h20.695313c12.578125 0 22.773437 10.199219 22.773437 22.777344v69.214844c0 2.667969 3.226563 4.042969 5.125 2.164062 9.117188-9.023437 23.308594-8.703124 23.308594-8.703124v-84.589844c0-28.457032-23.070312-51.527344-51.527344-51.527344zm0 0" fill="#ffaa16"/><path d="m282.347656 7.5h-49.484375c28.191407 0 51.082031 22.644531 51.507813 50.734375 11.78125.875 21.070312 10.703125 21.070312 22.707031v69.214844c0 2.667969 3.226563 4.042969 5.125 2.164062 9.117188-9.023437 23.308594-8.703124 23.308594-8.703124v-84.589844c0-28.457032-23.070312-51.527344-51.527344-51.527344zm0 0" fill="#ff914d"/><path d="m367.542969 398.371094c0 17.285156-14.011719 31.300781-31.296875 31.300781s-31.296875-14.015625-31.296875-31.300781c0-17.28125 14.011719-31.296875 31.296875-31.296875s31.296875 14.015625 31.296875 31.296875zm0 0" fill="#ff8125"/><path d="m350.035156 398.371094c0 7.617187-6.175781 13.789062-13.789062 13.789062-7.613282 0-13.789063-6.171875-13.789063-13.789062 0-7.613282 6.175781-13.785156 13.789063-13.785156 7.613281 0 13.789062 6.171874 13.789062 13.785156zm0 0" fill="#ffaa16"/><path d="m453.773438 485.78125-22.648438-132.601562c-2.441406-14.289063-12.578125-25.769532-26.457031-29.953126l-61.089844-18.433593c-1.265625-14.933594-7.386719-29.023438-17.578125-40.171875-8.148438-8.921875-18.402344-15.414063-29.703125-19 1.933594-2.144532 3.726563-4.28125 5.371094-6.371094 14.527343-18.476562 22.304687-38.832031 24.285156-52.722656h4.710937c12.261719 0 22.234376-9.976563 22.234376-22.234375v-11.394531c0-8.183594-4.601563-15.597657-11.523438-19.445313v-27.402344c0-4.144531-3.359375-7.5-7.5-7.5-4.144531 0-7.5 3.355469-7.5 7.5v30.761719c-2.917969.507812-6.40625 1.382812-9.96875 2.882812-.363281.132813-.71875.289063-1.054688.472657-.800781.367187-1.609374.753906-2.410156 1.1875v-60.414063c0-16.695312-13.582031-30.277344-30.277344-30.277344h-20.695312c-7.136719 0-14.109375 2.488282-19.636719 7.007813l-2.03125 1.65625c-3.726562 3.050781-8.433593 4.730469-13.253906 4.730469s-9.527344-1.679688-13.253906-4.726563l-2.03125-1.660156c-5.527344-4.519531-12.5-7.007813-19.640625-7.007813h-20.695313c-16.691406 0-30.273437 13.582032-30.273437 30.277344v60.414063c-.804688-.433594-1.609375-.820313-2.414063-1.1875-.332031-.183594-.6875-.339844-1.054687-.46875-3.5625-1.503907-7.046875-2.378907-9.964844-2.886719v-77.785156c0-24.277344 19.75-44.027344 44.027344-44.027344h110.601562c24.277344 0 44.027344 19.75 44.027344 44.027344v11.785156c0 4.144531 3.355469 7.5 7.5 7.5 4.140625 0 7.5-3.355469 7.5-7.5v-11.785156c0-32.546875-26.480469-59.027344-59.027344-59.027344h-110.601562c-32.546875 0-59.027344 26.480469-59.027344 59.027344v74.425781c-6.917969 3.847656-11.519531 11.261719-11.519531 19.445313v11.394531c0 12.261719 9.972656 22.234375 22.230469 22.234375h4.710937c1.980469 13.890625 9.757813 34.246094 24.285156 52.722656 1.644531 2.085938 3.433594 4.222656 5.363281 6.367188-25.976562 8.25-44.921874 31.609374-47.273437 59.175781l-61.089844 18.433593c-13.878906 4.1875-24.015625 15.664063-26.457031 29.953126l-9.195312 53.847656c-.699219 4.082031 2.046874 7.957031 6.128906 8.652344 4.085937.707031 7.957031-2.046876 8.65625-6.128907l9.199218-53.847656c1.472657-8.644531 7.605469-15.585937 16-18.117187l56.5-17.046876v20.929688c0 4.144531 3.359376 7.5 7.5 7.5 4.144532 0 7.5-3.355469 7.5-7.5v-25.457031l25.769532-7.773438c2.425781 5.105469 7.3125 16.347657 17.132812 40.960938 9.109375 22.855469 20.242188 51.589843 30.929688 79.546875.078125.246094.171875.480468.273437.714844 7.378907 19.3125 14.539063 38.222656 20.660157 54.539062 1.097656 2.929688 3.894531 4.867188 7.023437 4.867188 3.125 0 5.921875-1.9375 7.019531-4.867188 6.121094-16.316406 13.28125-35.230469 20.664063-54.539062.101562-.234376.191406-.46875.269531-.710938 10.859375-28.40625 22.175781-57.609375 31.363281-80.636719 9.535157-23.859375 14.3125-34.847656 16.699219-39.875l25.769531 7.773438v51.0625c0 4.144531 3.359375 7.5 7.5 7.5s7.5-3.355469 7.5-7.5v-46.535157l56.5 17.046876c8.394531 2.53125 14.527344 9.476562 16.003907 18.117187l22.648437 132.601563c.375 2.199218-.207031 4.347656-1.648437 6.054687-1.4375 1.703125-3.457032 2.640625-5.6875 2.640625h-409.203126c-2.230468 0-4.25-.9375-5.691406-2.640625-1.4375-1.707031-2.023437-3.855469-1.644531-6.054687l7.472656-43.761719c.699219-4.082031-2.046875-7.957031-6.128906-8.652344-4.078125-.703125-7.957031 2.046875-8.65625 6.128906l-7.472656 43.761719c-1.117188 6.53125.691406 13.183594 4.96875 18.25 4.269531 5.0625 10.523437 7.96875 17.152343 7.96875h409.207032c6.628906 0 12.878906-2.90625 17.152344-7.972656 4.273437-5.0625 6.082031-11.714844 4.96875-18.246094zm-125.984376-185.75-25.90625-7.816406c-.007812-.003906-.015624-.003906-.023437-.007813-.003906 0-.007813-.003906-.011719-.003906-4.351562-1.3125-8.996094-1.097656-13.167968.492187-3.015626-3.292968-5.113282-8.152343-5.113282-12.855468v-21.832032c22.464844 3.3125 39.898438 20.292969 44.222656 42.023438zm-45.535156 18.402344c-.335937.804687-.675781 1.625-1.027344 2.46875-.109374.269531-.222656.542968-.335937.8125-.292969.710937-.59375 1.4375-.898437 2.179687-.082032.195313-.15625.378907-.238282.574219-.089844.21875-.183594.453125-.277344.675781-.15625.378907-.3125.765625-.472656 1.152344-.199218.488281-.398437.976563-.601562 1.476563-.148438.355468-.296875.726562-.445313 1.089843-.402343.980469-.808593 1.984375-1.226562 3.007813-.152344.378906-.304688.753906-.457031 1.136718-.230469.5625-.460938 1.140626-.691407 1.714844-.167969.410156-.332031.820313-.5 1.238282-.222656.554687-.449219 1.109374-.675781 1.675781-.207031.519531-.421875 1.050781-.632812 1.578125-.203126.507812-.40625 1.011718-.613282 1.527344-.394531.988281-.796875 1.988281-1.203125 3.007812-.152343.386719-.3125.785156-.46875 1.179688-.296875.746093-.59375 1.492187-.898437 2.253906-.179688.457031-.363282.921875-.546875 1.386718-.285157.714844-.570313 1.433594-.859375 2.164063-.183594.464844-.371094.933594-.558594 1.40625-.347656.882813-.699219 1.773437-1.054688 2.675781-.125.3125-.246093.617188-.367187.929688-.035156.089844-.070313.175781-.105469.261718l-7.355468-3.125c-.039063-.019531-.078126-.035156-.117188-.050781l-17.636719-7.492187 42.234375-31.5625c-.195312.457031-.394531.925781-.597656 1.402344-.351562.832031-.714844 1.703124-1.085938 2.589843-.097656.21875-.191406.441407-.285156.664063zm-27.347656 68.792968c-1.492188 3.859376-2.984375 7.71875-4.464844 11.558594l-3.050781-16.710937 11.429687-13.285157 2.792969 1.1875c-2.136719 5.46875-4.367187 11.210938-6.707031 17.25zm-55.71875 0c-2.335938-6.039062-4.570312-11.78125-6.707031-17.25l2.796875-1.1875 11.425781 13.285157-3.050781 16.710937c-1.480469-3.839844-2.96875-7.703125-4.464844-11.558594zm-12.652344-32.398437c-.359375-.90625-.714844-1.808594-1.066406-2.695313-.1875-.46875-.371094-.933593-.554688-1.394531-.285156-.71875-.566406-1.429687-.84375-2.136719-.195312-.488281-.390624-.980468-.582031-1.464843-.28125-.703125-.554687-1.394531-.832031-2.082031-.175781-.441407-.351562-.890626-.527344-1.324219-.402344-1.011719-.800781-2.007813-1.191406-2.988281-.226562-.566407-.449219-1.121094-.675781-1.675782-.179688-.453125-.359375-.90625-.539063-1.351562-.246094-.601563-.484375-1.199219-.722656-1.789063-.160156-.398437-.320312-.796875-.480469-1.191406-.234375-.582031-.46875-1.164063-.699219-1.730469-.152343-.375-.296874-.738281-.445312-1.105468-.410156-1.003907-.808594-1.988282-1.199219-2.949219-.164062-.398438-.328125-.800781-.488281-1.195313-.191406-.464844-.375-.917968-.5625-1.375-.179688-.4375-.359375-.871094-.53125-1.296875-.082031-.203125-.171875-.414062-.25-.609375-.070312-.171875-.136719-.328125-.207031-.496094-.367188-.890624-.726563-1.769531-1.082031-2.617187-.027344-.070313-.058594-.144531-.085938-.210937-.410156-.988282-.804688-1.9375-1.191406-2.867188-.054688-.121094-.105469-.246094-.15625-.367188-.394532-.9375-.777344-1.855468-1.148438-2.734374-.203125-.476563-.402344-.945313-.597656-1.402344l42.234375 31.566406-17.644531 7.496094c-.035156.011718-.066406.027344-.101563.039062l-7.363281 3.128906c-.035156-.085937-.070312-.171874-.105469-.261718-.121093-.308594-.238281-.609375-.359375-.917969zm-1.003906-87.070313c11.550781 6.210938 25.332031 10.402344 41.515625 10.402344s29.96875-4.191406 41.515625-10.402344v12.082032c0 7.09375 2.730469 15.039062 7.601562 21.230468l-49.117187 36.710938-49.117187-36.710938c4.871093-6.191406 7.601562-14.136718 7.601562-21.230468zm32.636719 104.640626-8.402344-9.765626 17.28125-7.339843 17.28125 7.339843-8.402344 9.769532h-17.757812zm119.730469-208.105469c0 3.988281-3.246094 7.234375-7.234376 7.234375h-4.195312v-19.433594c3.996094-.996094 7.203125-.980469 7.238281-.980469 1.289063.015625 2.542969-.285156 3.660157-.867187.332031.828125.53125 1.722656.53125 2.652344zm-221.699219 0v-11.394531c0-.929688.195312-1.820313.527343-2.652344 1.117188.582031 2.371094.886718 3.664063.867187.050781.007813 3.25-.011719 7.234375.980469v19.433594h-4.195312c-3.988282 0-7.230469-3.246094-7.230469-7.234375zm26.425781 15.644531v-19.695312c2.273438.683593 4.757812.589843 7.050781-.371094 3.933594-1.640625 6.476563-5.457032 6.476563-9.714844v-69.214844c0-8.425781 6.855468-15.277344 15.277344-15.277344h20.695312c3.6875 0 7.289062 1.285157 10.140625 3.617188l2.03125 1.660156c6.402344 5.234375 14.480469 8.117188 22.75 8.117188 8.273437 0 16.351563-2.882813 22.75-8.117188l2.03125-1.660156c2.855469-2.332031 6.457031-3.617188 10.144531-3.617188h20.695313c8.421875 0 15.277343 6.855469 15.277343 15.277344v69.214844c0 4.257812 2.542969 8.074219 6.476563 9.714844 1.316406.550781 2.691406.816406 4.054687.816406 1.015626 0 2.023438-.148438 2.996094-.4375v19.6875c0 10.945312-7.570312 32.203125-21.59375 50.039062-4.644531 5.90625-10.613281 12.253907-17.964844 17.800782-.238281.15625-.464843.332031-.683593.515625-11.386719 8.417969-26.03125 14.867187-44.179688 14.867187-18.148437 0-32.792969-6.449218-44.183593-14.867187-.21875-.183594-.445313-.359375-.683594-.515625-7.347656-5.546875-13.316406-11.894532-17.964844-17.800782-14.023438-17.835937-21.59375-39.09375-21.59375-50.039062zm27.90625 78.082031v21.820313c0 4.703125-2.097656 9.5625-5.117188 12.855468-4.175781-1.589843-8.824218-1.804687-13.179687-.488281-.003906 0-.007813.003907-.011719.003907l-25.886718 7.808593c4.378906-21.535156 21.871093-38.679687 44.195312-42zm56.660156 201.707031c-.214844-.445312-.46875-.863281-.765625-1.253906-3.386719-8.957031-7.683593-20.285156-12.445312-32.75l7-38.320312h12.132812l7 38.320312c-4.984375 13.054688-9.464843 24.863282-12.921875 34.003906zm0 0" fill="#434c54"/><path d="m142.554688 459.792969h-9.347657c-4.140625 0-7.5-3.359375-7.5-7.5 0-4.144531 3.359375-7.5 7.5-7.5h9.347657c1.128906 0 2.214843-.476563 2.980468-1.304688s1.15625-1.949219 1.066406-3.070312l-5.460937-70.097657c-.191406-2.484374-.785156-4.90625-1.753906-7.199218-3.460938-8.167969-11.664063-13.421875-20.929688-13.421875-.058593 0-.117187 0-.175781 0l-1.234375.011719c-9.535156.066406-18.0625 5.871093-21.21875 14.445312-.730469 1.980469-1.183594 4.054688-1.347656 6.164062l-5.460938 70.097657c-.089843 1.125.300781 2.242187 1.066407 3.070312.765624.828125 1.851562 1.304688 2.980468 1.304688h9.347656c4.140626 0 7.5 3.355469 7.5 7.5 0 4.140625-3.359374 7.5-7.5 7.5h-9.347656c-5.296875 0-10.394531-2.230469-13.992187-6.117188-3.597657-3.886719-5.421875-9.144531-5.011719-14.425781l5.464844-70.09375c.269531-3.484375 1.019531-6.910156 2.222656-10.183594 5.304688-14.402344 19.445312-24.152344 35.191406-24.265625l1.234375-.007812h.285157c15.304687 0 28.917968 8.835937 34.738281 22.570312 1.605469 3.785157 2.578125 7.785157 2.898437 11.886719l5.460938 70.09375c.414062 5.277344-1.414063 10.535156-5.007813 14.425781-3.601562 3.886719-8.699219 6.117188-13.996093 6.117188zm0 0" fill="#aab2b9"/></svg>