<svg viewBox="0 -40 512 511" xmlns="http://www.w3.org/2000/svg"><path d="m88.253906 430.925781h-27.40625c-4.398437 0-7.964844-3.566406-7.964844-7.964843v-45.371094h43.335938v45.371094c0 4.398437-3.566406 7.964843-7.964844 7.964843zm0 0" fill="#5de1c0"/><path d="m451.152344 430.925781h-27.40625c-4.398438 0-7.964844-3.566406-7.964844-7.964843v-45.371094h43.332031v45.371094c.003907 4.398437-3.5625 7.964843-7.960937 7.964843zm0 0" fill="#5de1c0"/><path d="m490.15625 397.179688h-468.3125c-7.921875 0-14.34375-6.417969-14.34375-14.339844v-360.496094c0-7.921875 6.421875-14.34375 14.34375-14.34375h468.3125c7.921875 0 14.34375 6.421875 14.34375 14.34375v360.496094c0 7.921875-6.421875 14.339844-14.34375 14.339844zm0 0" fill="#e2ebf9"/><path d="m490.15625 8h-34.324219v389.179688h34.324219c7.921875 0 14.34375-6.417969 14.34375-14.339844v-360.496094c0-7.921875-6.421875-14.34375-14.34375-14.34375zm0 0" fill="#c1c8d2"/><path d="m41.042969 315.363281v-269.730469c0-2.257812 1.832031-4.089843 4.089843-4.089843h421.734376c2.257812 0 4.089843 1.832031 4.089843 4.089843v269.730469c0 2.257813-1.832031 4.089844-4.089843 4.089844h-421.734376c-2.257812 0-4.089843-1.832031-4.089843-4.089844zm0 0" fill="#ffaa16"/><path d="m466.867188 41.542969h-45.078126v277.910156h45.078126c2.257812 0 4.089843-1.832031 4.089843-4.089844v-269.730469c0-2.257812-1.832031-4.089843-4.089843-4.089843zm0 0" fill="#ff914d"/><path d="m420.808594 75.03125c-12.199219-3.675781-19.753906 4.324219-23.484375 8.34375-3.726563-4.019531-11.285157-12.019531-23.480469-8.34375-17.75 5.347656-17.640625 32.996094 12.242188 52.488281 3.527343 2.304688 9.117187 5.492188 10.945312 6.542969h.589844c1.824218-1.050781 7.414062-4.238281 10.945312-6.542969 29.882813-19.488281 29.992188-47.140625 12.242188-52.488281zm0 0" fill="#76ffda"/><path d="m461.863281 358.679688c0 8.367187-6.78125 15.148437-15.148437 15.148437-8.367188 0-15.148438-6.78125-15.148438-15.148437 0-8.367188 6.78125-15.148438 15.148438-15.148438 8.367187 0 15.148437 6.78125 15.148437 15.148438zm0 0" fill="#ff914d"/><path d="m313.632812 237.421875c-2.839843 0-5.621093-1.113281-7.71875-3.207031l-33.894531-33.894532h-35.25c-2.902343 0-5.636719-1.125-7.695312-3.167968l-28.449219-28.191406v57.429687c0 4.433594-2.648438 8.398437-6.746094 10.097656s-8.777344.769531-11.914062-2.371093l-34.746094-34.742188h-55.21875c-4.140625 0-7.5-3.359375-7.5-7.5 0-4.144531 3.359375-7.5 7.5-7.5h56.90625c2.917969 0 5.664062 1.136719 7.730469 3.199219l28.992187 28.992187v-57.367187c0-4.425781 2.636719-8.386719 6.722656-10.089844 4.085938-1.703125 8.757813-.789063 11.902344 2.328125l34.191406 33.882812h35.261719c2.917969 0 5.664063 1.136719 7.726563 3.203126l28.140625 28.136718v-57.851562c0-4.339844 2.570312-8.273438 6.546875-10.011719 3.976562-1.742187 8.609375-.964844 11.800781 1.984375l37.441406 34.585938h54.636719c4.144531 0 7.5 3.359374 7.5 7.5 0 4.144531-3.355469 7.5-7.5 7.5h-56.230469c-2.757812 0-5.390625-1.027344-7.414062-2.898438l-31.78125-29.359375v58.375c0 4.4375-2.648438 8.402344-6.746094 10.097656-1.363281.5625-2.785156.839844-4.195313.839844zm-164.726562-38.050781h.011719zm0 0" fill="#ff8125"/><path d="m299.917969 366.179688h-132.917969c-4.140625 0-7.5-3.359376-7.5-7.5 0-4.144532 3.359375-7.5 7.5-7.5h132.917969c4.140625 0 7.5 3.355468 7.5 7.5 0 4.140624-3.359375 7.5-7.5 7.5zm0 0" fill="#aab2b9"/><path d="m354.332031 366.179688h-19.414062c-4.144531 0-7.5-3.359376-7.5-7.5 0-4.144532 3.355469-7.5 7.5-7.5h19.414062c4.144531 0 7.5 3.355468 7.5 7.5 0 4.140624-3.355469 7.5-7.5 7.5zm0 0" fill="#aab2b9"/><g fill="#434c54"><path d="m490.15625 404.679688h-468.3125c-12.046875 0-21.84375-9.796876-21.84375-21.839844v-360.496094c0-12.042969 9.796875-21.84375 21.84375-21.84375h468.3125c12.046875 0 21.84375 9.796875 21.84375 21.84375v360.496094c0 12.042968-9.796875 21.839844-21.84375 21.839844zm-468.3125-389.179688c-3.773438 0-6.84375 3.070312-6.84375 6.84375v360.496094c0 3.769531 3.070312 6.839844 6.84375 6.839844h468.3125c3.773438 0 6.84375-3.066407 6.84375-6.839844v-360.496094c0-3.773438-3.070312-6.84375-6.84375-6.84375zm0 0"/><path d="m397.621094 141.5625h-.589844c-1.3125 0-2.605469-.34375-3.742188-1l-.503906-.289062c-2.207031-1.269532-7.375-4.238282-10.800781-6.472657-22.910156-14.941406-29.171875-33.496093-27.394531-45.878906 1.402344-9.769531 7.792968-17.273437 17.089844-20.070313 11.59375-3.496093 20.164062.796876 25.644531 5.179688 5.480469-4.382812 14.050781-8.675781 25.644531-5.179688 9.296875 2.796876 15.683594 10.300782 17.089844 20.070313 1.777344 12.382813-4.484375 30.9375-27.398438 45.878906-3.425781 2.234375-8.59375 5.207031-10.796875 6.472657l-.503906.289062c-1.136719.65625-2.425781 1-3.738281 1zm-17.667969-59.96875c-1.21875 0-2.527344.191406-3.949219.621094-4.699218 1.414062-6.164062 5.042968-6.5625 7.839844-1.070312 7.449218 3.71875 20.082031 20.742188 31.183593 2.023437 1.320313 4.851562 3 7.140625 4.335938 2.292969-1.335938 5.121093-3.015625 7.144531-4.335938 17.023438-11.101562 21.8125-23.734375 20.742188-31.183593-.398438-2.796876-1.867188-6.425782-6.5625-7.839844-7.226563-2.175782-11.609376 1.71875-15.824219 6.261718-1.417969 1.53125-3.410157 2.402344-5.496094 2.402344-2.089844 0-4.082031-.871094-5.5-2.402344-3.386719-3.652343-6.882813-6.882812-11.875-6.882812zm0 0"/></g></svg>