<?xml version="1.0" encoding="iso-8859-1"?>
<!-- Generator: Adobe Illustrator 19.0.0, SVG Export Plug-In . SVG Version: 6.00 Build 0)  -->
<svg version="1.1" id="Capa_1" xmlns="http://www.w3.org/2000/svg" xmlns:xlink="http://www.w3.org/1999/xlink" x="0px" y="0px"
	 viewBox="0 0 512 512" style="enable-background:new 0 0 512 512;" xml:space="preserve">
<path style="fill:#E1EFFB;" d="M470.477,504.502H41.523c-8.507,0-15.404-6.896-15.404-15.404V60.144
	c0-8.507,6.896-15.404,15.404-15.404h428.954c8.507,0,15.404,6.896,15.404,15.404v428.954
	C485.882,497.605,478.984,504.502,470.477,504.502z"/>
<path style="fill:#BACED8;" d="M470.477,44.741h-33.834v459.761h33.834c8.507,0,15.404-6.897,15.404-15.404V60.144
	C485.882,51.637,478.984,44.741,470.477,44.741z"/>
<rect x="79.19" y="44.741" style="fill:#F9644B;" width="353.61" height="404.37"/>
<rect x="383.65" y="44.741" style="fill:#DB3F2E;" width="49.16" height="404.37"/>
<path style="fill:#FFFFFF;" d="M346.245,245.125h-66.621v-66.621c0-2.123-1.721-3.844-3.844-3.844h-39.559
	c-2.123,0-3.844,1.721-3.844,3.844v66.621h-66.621c-2.123,0-3.844,1.721-3.844,3.844v39.559c0,2.123,1.721,3.844,3.844,3.844h66.621
	v66.621c0,2.123,1.721,3.844,3.844,3.844h39.559c2.123,0,3.844-1.721,3.844-3.844v-66.621h66.621c2.123,0,3.844-1.721,3.844-3.844
	v-39.559C350.089,246.846,348.367,245.125,346.245,245.125z"/>
<path style="fill:#2C5871;" d="M470.477,44.741H41.523c-8.507,0-15.404,6.897-15.404,15.404v52.891H485.88V60.144
	C485.882,51.637,478.984,44.741,470.477,44.741z"/>
<path style="fill:#1D4859;" d="M485.188,55.564c-0.6-1.929-1.569-3.696-2.825-5.218c-2.825-3.423-7.101-5.606-11.886-5.606h-33.834
	v68.295h49.238V60.144C485.882,58.549,485.638,57.011,485.188,55.564z"/>
<g>
	<path style="fill:#E1EFFB;" d="M102.24,78.888L102.24,78.888c-13.357,0-24.184-10.828-24.184-24.184V31.682
		c0-13.357,10.828-24.184,24.184-24.184l0,0c13.357,0,24.184,10.828,24.184,24.184v23.021
		C126.424,68.06,115.597,78.888,102.24,78.888z"/>
	<path style="fill:#E1EFFB;" d="M204.747,78.888L204.747,78.888c-13.357,0-24.184-10.828-24.184-24.184V31.682
		c0-13.357,10.828-24.184,24.184-24.184l0,0c13.357,0,24.184,10.828,24.184,24.184v23.021
		C228.931,68.06,218.103,78.888,204.747,78.888z"/>
	<path style="fill:#E1EFFB;" d="M307.253,78.888L307.253,78.888c-13.357,0-24.184-10.828-24.184-24.184V31.682
		c0-13.357,10.828-24.184,24.184-24.184l0,0c13.357,0,24.184,10.828,24.184,24.184v23.021
		C331.438,68.06,320.61,78.888,307.253,78.888z"/>
	<path style="fill:#E1EFFB;" d="M409.76,78.888L409.76,78.888c-13.357,0-24.184-10.828-24.184-24.184V31.682
		c0-13.357,10.828-24.184,24.184-24.184l0,0c13.357,0,24.184,10.828,24.184,24.184v23.021
		C433.944,68.06,423.116,78.888,409.76,78.888z"/>
</g>
<path d="M165.755,299.87h59.123v59.123c0,6.254,5.088,11.342,11.342,11.342h39.559c6.254,0,11.342-5.088,11.342-11.342V299.87
	h59.123c6.254,0,11.342-5.088,11.342-11.342v-39.559c0-6.254-5.088-11.342-11.342-11.342h-59.123v-59.123
	c0-6.254-5.088-11.342-11.342-11.342h-39.559c-6.254,0-11.342,5.088-11.342,11.342v59.123h-59.123
	c-6.254,0-11.342,5.088-11.342,11.342v39.559C154.413,294.781,159.501,299.87,165.755,299.87z M169.41,252.623h62.967
	c4.142,0,7.498-3.357,7.498-7.498v-62.967h32.25v62.967c0,4.141,3.357,7.498,7.498,7.498h62.967v32.25h-62.967
	c-4.142,0-7.498,3.357-7.498,7.498v62.967h-32.25v-62.967c0-4.141-3.357-7.498-7.498-7.498H169.41V252.623z"/>
<path d="M470.477,37.242h-29.034v-5.56C441.443,14.212,427.23,0,409.76,0c-17.469,0-31.682,14.212-31.682,31.682v5.56h-39.142v-5.56
	C338.936,14.212,324.724,0,307.253,0S275.57,14.212,275.57,31.682v5.56h-39.14v-5.56C236.43,14.212,222.217,0,204.747,0
	s-31.683,14.212-31.683,31.682v5.56h-39.142v-5.56C133.922,14.212,119.71,0,102.24,0S70.557,14.212,70.557,31.682v5.56H41.523
	c-12.628,0-22.902,10.273-22.902,22.902v428.954c0,12.628,10.274,22.902,22.902,22.902h428.953
	c12.628,0,22.902-10.274,22.902-22.902V60.144C493.378,47.516,483.104,37.242,470.477,37.242z M393.074,31.682
	c0-9.2,7.486-16.686,16.685-16.686c9.201,0,16.686,7.485,16.686,16.686v23.021c0,9.2-7.485,16.686-16.686,16.686
	c-9.2,0-16.685-7.485-16.685-16.686V31.682z M290.567,54.704c0-0.007,0,0,0-0.007C290.567,54.691,290.567,54.71,290.567,54.704
	V31.682c0-9.2,7.486-16.686,16.686-16.686s16.686,7.485,16.686,16.686v23.021c0,0.007,0,0,0,0.007s0-0.013,0-0.007l0,0
	c0,9.2-7.486,16.686-16.686,16.686S290.567,63.904,290.567,54.704L290.567,54.704z M188.06,54.704c0-0.007,0,0.013,0,0.007
	C188.06,54.704,188.06,54.71,188.06,54.704V31.682c0-9.2,7.486-16.686,16.686-16.686c9.201,0,16.686,7.485,16.686,16.686v23.021
	c0,0.007,0,0,0,0.007s0-0.013,0-0.007l0,0c0,9.2-7.486,16.686-16.686,16.686C195.546,71.39,188.06,63.904,188.06,54.704
	L188.06,54.704z M85.554,31.682c0-9.2,7.486-16.686,16.686-16.686s16.685,7.485,16.685,16.686v23.021
	c0,9.2-7.485,16.686-16.685,16.686c-9.201,0-16.686-7.485-16.686-16.686V31.682z M478.382,489.098c0,4.359-3.546,7.906-7.905,7.906
	H41.523c-4.359,0-7.905-3.547-7.905-7.906V120.533h444.764L478.382,489.098L478.382,489.098z M478.382,105.537H33.618V60.144
	c0-4.359,3.546-7.905,7.905-7.905h29.034v2.465c0,17.47,14.212,31.682,31.683,31.682c17.469,0,31.682-14.212,31.682-31.682v-2.465
	h39.142v2.465c0,17.47,14.212,31.682,31.683,31.682s31.683-14.212,31.683-31.682v-2.465h39.141v2.465
	c0,17.47,14.212,31.682,31.683,31.682s31.683-14.212,31.683-31.682v-2.465h39.142v2.465c0,17.47,14.212,31.682,31.682,31.682
	s31.683-14.212,31.683-31.682v-2.465h29.034c4.359,0,7.905,3.547,7.905,7.905v45.393H478.382z"/>
<path d="M79.194,456.611h353.612c4.142,0,7.498-3.357,7.498-7.498V147.985c0-4.141-3.357-7.498-7.498-7.498
	s-7.498,3.357-7.498,7.498v293.629H86.692V148.652c0-4.141-3.357-7.498-7.498-7.498c-4.142,0-7.498,3.357-7.498,7.498v300.461
	C71.696,453.254,75.052,456.611,79.194,456.611z"/>
<g>
</g>
<g>
</g>
<g>
</g>
<g>
</g>
<g>
</g>
<g>
</g>
<g>
</g>
<g>
</g>
<g>
</g>
<g>
</g>
<g>
</g>
<g>
</g>
<g>
</g>
<g>
</g>
<g>
</g>
</svg>
