<svg viewBox="0 -7 512 512" xmlns="http://www.w3.org/2000/svg"><path d="m504.5 381.097656c0 60.527344-49.066406 109.59375-109.59375 109.59375s-109.59375-49.066406-109.59375-109.59375 49.066406-109.59375 109.59375-109.59375 109.59375 49.066406 109.59375 109.59375zm0 0" fill="#f3e8d6"/><path d="m504.5 381.097656c0 60.527344-49.066406 109.59375-109.59375 109.59375s-109.59375-49.066406-109.59375-109.59375 49.066406-109.59375 109.59375-109.59375 109.59375 49.066406 109.59375 109.59375zm0 0" fill="#e2ebf9"/><path d="m452.082031 287.589844c10.199219 16.644531 16.085938 36.222656 16.085938 57.175781 0 60.527344-49.066407 109.59375-109.59375 109.59375-20.953125 0-40.53125-5.882813-57.179688-16.085937 19.265625 31.441406 53.9375 52.417968 93.511719 52.417968 60.527344 0 109.59375-49.066406 109.59375-109.59375 0-39.574218-20.976562-74.246094-52.417969-93.507812zm0 0" fill="#c1c8d2"/><path d="m394.90625 498.191406c-4.144531 0-7.5-3.355468-7.5-7.5v-136.417968c0-4.140626 3.355469-7.5 7.5-7.5s7.5 3.359374 7.5 7.5v136.417968c0 4.144532-3.355469 7.5-7.5 7.5zm0 0" fill="#aab2b9"/><path d="m394.90625 326.605469c-4.144531 0-7.5-3.359375-7.5-7.5v-47.601563c0-4.140625 3.355469-7.5 7.5-7.5s7.5 3.359375 7.5 7.5v47.601563c0 4.140625-3.355469 7.5-7.5 7.5zm0 0" fill="#aab2b9"/><path d="m35.558594 401.535156c-37.410156-37.410156-37.410156-98.066406 0-135.476562l230.5-230.5c37.410156-37.410156 98.066406-37.410156 135.476562 0s37.410156 98.066406 0 135.476562l-230.5 230.5c-37.410156 37.410156-98.066406 37.410156-135.476562 0zm0 0" fill="#fff"/><path d="m401.535156 35.558594c-5.988281-5.988282-12.574218-11.011719-19.5625-15.085938 21.363282 36.671875 16.335938 84.492188-15.085937 115.914063l-230.5 230.5c-31.421875 31.421875-79.242188 36.449219-115.914063 15.085937 4.074219 6.988282 9.097656 13.574219 15.085938 19.5625 37.410156 37.410156 98.066406 37.410156 135.476562 0l230.5-230.5c37.410156-37.410156 37.410156-98.066406 0-135.476562zm0 0" fill="#e2ebf9"/><path d="m401.535156 35.558594c-37.410156-37.410156-98.066406-37.410156-135.476562 0l-115.230469 115.226562 135.480469 135.476563 115.226562-115.226563c37.410156-37.410156 37.410156-98.066406 0-135.476562zm0 0" fill="#5de1c0"/><path d="m422.578125 139.347656c.585937-1.441406 1.132813-2.894531 1.644531-4.359375 1.535156-4.386719 2.738282-8.867187 3.617188-13.394531.292968-1.507812.546875-3.023438.765625-4.542969.4375-3.039062.730469-6.097656.878906-9.15625 1.242187-26.027343-8.074219-52.460937-27.949219-72.335937-.683594-.679688-1.375-1.347656-2.070312-2.003906-.207032-.195313-.414063-.382813-.621094-.574219-.515625-.476563-1.035156-.949219-1.558594-1.414063-.214844-.1875-.425781-.378906-.640625-.5625-.609375-.53125-1.21875-1.050781-1.835937-1.558594-.109375-.09375-.21875-.1875-.328125-.277343-.769531-.632813-1.546875-1.25-2.332031-1.855469-.03125-.023438-.0625-.046875-.097657-.070312-.738281-.566407-1.484375-1.121094-2.238281-1.664063-.125-.089844-.25-.179687-.375-.269531-.714844-.511719-1.433594-1.011719-2.160156-1.5-.074219-.050782-.148438-.101563-.222656-.152344-1.667969-1.117188-3.363282-2.179688-5.082032-3.179688h-.003906c21.363281 36.671876 16.339844 84.488282-15.082031 115.910157l-115.226563 115.226562 34.648438 34.648438 115.226562-115.226563c9.351563-9.351562 16.367188-20.15625 21.042969-31.6875zm0 0" fill="#00c395"/><g fill="#434c54"><path d="m394.90625 264.003906c-64.566406 0-117.09375 52.527344-117.09375 117.09375s52.527344 117.09375 117.09375 117.09375 117.09375-52.527344 117.09375-117.09375-52.527344-117.09375-117.09375-117.09375zm0 219.1875c-56.296875 0-102.09375-45.796875-102.09375-102.09375 0-56.292968 45.796875-102.09375 102.09375-102.09375 56.292969 0 102.09375 45.800782 102.09375 102.09375 0 56.296875-45.800781 102.09375-102.09375 102.09375zm0 0"/><path d="m406.839844 30.253906c-19.511719-19.507812-45.453125-30.253906-73.042969-30.253906-27.59375 0-53.53125 10.746094-73.042969 30.253906l-230.5 230.5c-19.507812 19.511719-30.253906 45.449219-30.253906 73.042969 0 27.589844 10.746094 53.53125 30.253906 73.042969 20.140625 20.136718 46.589844 30.203125 73.042969 30.203125s52.902344-10.066407 73.042969-30.203125l230.5-230.5c40.273437-40.277344 40.273437-105.808594 0-146.085938zm-120.53125 245.402344-82.589844-82.585938c-2.929688-2.929687-7.679688-2.929687-10.605469 0-2.929687 2.925782-2.929687 7.675782 0 10.605469l82.585938 82.589844-109.96875 109.964844c-34.425781 34.425781-90.441407 34.425781-124.867188 0-16.679687-16.675781-25.863281-38.847657-25.863281-62.433594s9.183594-45.757813 25.863281-62.4375l109.964844-109.964844 17.40625 17.40625c1.464844 1.464844 3.386719 2.195313 5.304687 2.195313 1.921876 0 3.839844-.730469 5.304688-2.195313 2.929688-2.929687 2.929688-7.679687 0-10.605469l-17.40625-17.410156 109.921875-109.921875c17.214844-17.214843 39.824219-25.820312 62.4375-25.820312 22.605469 0 45.222656 8.609375 62.433594 25.820312 34.429687 34.425781 34.429687 90.441407 0 124.871094zm0 0"/></g></svg>