<svg height="512pt" viewBox="-30 0 511 512" width="512pt" xmlns="http://www.w3.org/2000/svg"><path d="m443.886719 223.757812c1.050781-13.476562-3.84375-27.019531-13.835938-36.648437l-173.027343-166.773437c-8.648438-8.335938-19.742188-12.5-30.839844-12.5-11.09375 0-22.191406 4.167968-30.835938 12.5l-173.03125 166.773437c-9.992187 9.628906-14.890625 23.171875-13.839844 36.648437-.082031 1.308594-.136718 2.625-.136718 3.957032v216.675781c0 33.011719 26.007812 59.773437 58.089844 59.773437h319.507812c32.082031 0 58.089844-26.761718 58.089844-59.773437v-216.675781c0-1.332032-.054688-2.644532-.140625-3.957032zm0 0" fill="#ffc843"/><path d="m256.035156 402.972656c-8.367187 7.96875-19.109375 11.957032-29.851562 11.957032-10.742188 0-21.484375-3.988282-29.851563-11.957032 0 0-187.992187-176.492187-187.992187-175.257812v216.675781c0 33.011719 26.007812 59.773437 58.089844 59.773437h319.507812c32.082031 0 58.089844-26.761718 58.089844-59.773437v-216.675781c0-1.234375-187.992188 175.257812-187.992188 175.257812zm0 0" fill="#ea9924"/><path d="m443.886719 223.757812c1.050781-13.476562-3.84375-27.019531-13.835938-36.648437l-173.027343-166.773437c-8.648438-8.335938-19.742188-12.5-30.839844-12.5-11.09375 0-22.191406 4.167968-30.835938 12.5l-173.03125 166.773437c-9.992187 9.628906-14.890625 23.171875-13.839844 36.648437-.082031 1.308594-.136718 2.625-.136718 3.957032v216.675781c0 33.011719 26.007812 59.773437 58.089844 59.773437h319.507812c32.082031 0 58.089844-26.761718 58.089844-59.773437v-216.675781c0-1.332032-.054688-2.644532-.140625-3.957032zm0 0" fill="#ffb400"/><path d="m404.992188 450.855469v-329.382813c0-19.882812-16.050782-36.003906-35.851563-36.003906h-285.914063c-19.800781 0-35.851562 16.121094-35.851562 36.003906v329.382813zm0 0" fill="#fff"/><path d="m404.992188 450.855469v-329.382813c0-19.882812-16.050782-36.003906-35.851563-36.003906h-285.914063c-19.800781 0-35.851562 16.121094-35.851562 36.003906v329.382813zm0 0" fill="#fff"/><path d="m79.980469 143.140625c0-19.882813 16.054687-36.003906 35.851562-36.003906h285.914063c.097656 0 .191406.007812.285156.007812-5.515625-12.753906-18.164062-21.675781-32.890625-21.675781h-285.914063c-19.800781 0-35.851562 16.121094-35.851562 36.003906v329.382813h32.605469zm0 0" fill="#e1eaf8"/><g fill="#c1c8d2"><path d="m309.390625 294.558594h-166.414063c-5.066406 0-9.171874 4.125-9.171874 9.210937 0 5.085938 4.105468 9.210938 9.171874 9.210938h166.414063c5.070313 0 9.171875-4.125 9.171875-9.210938 0-5.085937-4.105469-9.210937-9.171875-9.210937zm0 0"/><path d="m309.390625 253.492188h-166.414063c-5.066406 0-9.171874 4.125-9.171874 9.210937s4.105468 9.210937 9.171874 9.210937h166.414063c5.070313 0 9.171875-4.121093 9.171875-9.210937 0-5.085937-4.105469-9.210937-9.171875-9.210937zm0 0"/><path d="m142.976562 230.847656h166.414063c5.070313 0 9.171875-4.125 9.171875-9.210937 0-5.085938-4.105469-9.210938-9.171875-9.210938h-166.414063c-5.066406 0-9.171874 4.125-9.171874 9.210938 0 5.085937 4.105468 9.210937 9.171874 9.210937zm0 0"/><path d="m142.976562 189.257812h83.207032c5.066406 0 9.171875-4.125 9.171875-9.210937 0-5.089844-4.105469-9.210937-9.171875-9.210937h-83.207032c-5.066406 0-9.171874 4.121093-9.171874 9.210937 0 5.085937 4.105468 9.210937 9.171874 9.210937zm0 0"/></g><path d="m309.839844 352.515625c-30.34375 28.429687-53.804688 50.457031-53.804688 50.457031-8.367187 7.96875-19.109375 11.957032-29.851562 11.957032-10.742188 0-21.484375-3.988282-29.851563-11.957032 0 0-23.464843-22.027344-53.808593-50.457031l-126.898438 120.859375c9.914062 18.359375 28.945312 30.789062 50.804688 30.789062h319.507812c21.859375 0 40.890625-12.429687 50.804688-30.789062zm0 0" fill="#ffc843"/><path d="m256.035156 402.972656c-8.367187 7.96875-19.109375 11.957032-29.851562 11.957032-10.742188 0-21.484375-3.988282-29.851563-11.957032 0 0-187.992187-176.492187-187.992187-175.257812v216.675781c0 33.011719 26.007812 59.773437 58.089844 59.773437h319.507812c32.082031 0 58.089844-26.761718 58.089844-59.773437v-216.675781c0-1.234375-187.992188 175.257812-187.992188 175.257812zm0 0" fill="#ffc843"/><path d="m309.839844 352.515625c-30.34375 28.429687-53.804688 50.457031-53.804688 50.457031-8.367187 7.96875-19.109375 11.957032-29.851562 11.957032-10.742188 0-21.484375-3.988282-29.851563-11.957032 0 0-23.464843-22.027344-53.808593-50.457031l-126.898438 120.859375c9.914062 18.359375 28.945312 30.789062 50.804688 30.789062h319.507812c21.859375 0 40.890625-12.429687 50.804688-30.789062zm0 0" fill="#ffb400"/><path d="m411.246094 257.746094v186.644531c0 33.011719-26.007813 59.773437-58.089844 59.773437h32.78125c32.082031 0 58.089844-26.761718 58.089844-59.773437v-216.675781c0-.328125-13.28125 11.902344-32.78125 30.03125zm0 0" fill="#fff"/><path d="m41.320312 444.390625v-186.457031c-19.609374-18.234375-32.980468-30.546875-32.980468-30.21875v216.675781c0 33.011719 26.007812 59.773437 58.089844 59.773437h32.980468c-32.082031 0-58.089844-26.761718-58.089844-59.773437zm0 0" fill="#ffa816"/><path d="m451.71875 224.121094c1.179688-16.035156-4.730469-31.570313-16.230469-42.652344l-22.660156-21.839844v-38.15625c0-24.175781-19.597656-43.839844-43.6875-43.839844h-41.378906l-65.300781-62.941406c-9.832032-9.472656-22.714844-14.691406-36.277344-14.691406s-26.445313 5.21875-36.277344 14.691406l-65.300781 62.941406h-41.378907c-24.089843 0-43.691406 19.664063-43.691406 43.839844v38.15625l-22.65625 21.839844c-11.503906 11.085938-17.410156 26.621094-16.230468 42.652344-.0625 8.707031-.109376 82.707031-.148438 220.269531 0 37.28125 29.578125 67.609375 65.929688 67.609375h319.507812c36.351562 0 65.925781-30.328125 65.925781-67.609375-.035156-137.570313-.082031-211.574219-.144531-220.269531zm-15.527344 220.269531c0 5.386719-.796875 10.582031-2.277344 15.472656l-112.664062-107.304687c46.261719-43.339844 92.976562-86.988282 114.832031-107.148438.050781 32.957032.09375 135.980469.109375 198.980469zm-11.578125-251.636719c7.890625 7.605469 11.339844 17.605469 11.453125 31.445313-1.40625 1.261719-15.804687 14.484375-23.238281 21.382812v-64.1875zm-223.828125-166.777344c6.894532-6.644531 15.914063-10.304687 25.398438-10.304687s18.507812 3.660156 25.402344 10.304687l53.589843 51.65625h-157.980469zm-117.558594 67.328126h285.914063c15.449219 0 28.015625 12.636718 28.015625 28.167968v138.679688c-14.171875 13.199218-31.859375 29.714844-52.8125 49.320312-46.355469 43.367188-93.203125 87.347656-93.710938 87.828125-6.632812 6.3125-15.3125 9.792969-24.449218 9.792969-9.132813 0-17.816406-3.480469-24.488282-9.832031-.46875-.441407-47.316406-44.421875-93.671874-87.789063-20.957032-19.605468-38.640626-36.121094-52.8125-49.320312v-138.679688c0-15.53125 12.570312-28.167968 28.015624-28.167968zm-67.050781 351.089843c.015625-59.28125.050781-158.679687.097657-198.992187 21.855468 20.15625 68.582031 63.820312 114.84375 107.15625l-112.664063 107.304687c-1.480469-4.890625-2.277344-10.085937-2.277344-15.46875zm11.578125-251.640625 11.78125-11.359375v64.1875c-7.429687-6.898437-21.628906-20.007812-23.328125-21.578125-.378906-11.066406 3.773438-23.753906 11.546875-31.25zm358.183594 303.574219h-319.507812c-16.785157 0-31.664063-8.558594-40.796876-21.664063l116.9375-111.371093c16.882813 15.824219 33.417969 31.335937 48.355469 45.355469 9.558594 9.105468 22.082031 14.117187 35.257813 14.117187 13.175781 0 25.699218-5.011719 35.214844-14.078125 14.949218-14.035156 31.5-29.5625 48.394531-45.394531l116.9375 111.371093c-9.128907 13.105469-24.007813 21.664063-40.792969 21.664063zm0 0" fill="#434c54"/></svg>